<mxfile host="Electron" agent="Mozilla/5.0 (Windows NT 10.0; Win64; x64) AppleWebKit/537.36 (KHTML, like Gecko) draw.io/24.7.8 Chrome/128.0.6613.36 Electron/32.0.1 Safari/537.36" version="24.7.8">
  <diagram name="Page-1" id="SxlBixSlnL5BtAg4sJxp">
    <mxGraphModel dx="1098" dy="791" grid="1" gridSize="10" guides="1" tooltips="1" connect="1" arrows="1" fold="1" page="1" pageScale="1" pageWidth="850" pageHeight="1100" math="0" shadow="0">
      <root>
        <mxCell id="0" />
        <mxCell id="1" parent="0" />
        <mxCell id="br7ys18pZ6fWadVmQY68-2" value="" style="rounded=0;whiteSpace=wrap;html=1;" vertex="1" parent="1">
          <mxGeometry x="120" y="200" width="340" height="200" as="geometry" />
        </mxCell>
        <mxCell id="br7ys18pZ6fWadVmQY68-3" value="" style="rounded=0;whiteSpace=wrap;html=1;" vertex="1" parent="1">
          <mxGeometry x="120" y="200" width="340" height="40" as="geometry" />
        </mxCell>
        <mxCell id="br7ys18pZ6fWadVmQY68-4" value="Shut Down Timer" style="rounded=0;whiteSpace=wrap;html=1;" vertex="1" parent="1">
          <mxGeometry x="120" y="200" width="200" height="40" as="geometry" />
        </mxCell>
        <mxCell id="br7ys18pZ6fWadVmQY68-5" value="X" style="rounded=0;whiteSpace=wrap;html=1;" vertex="1" parent="1">
          <mxGeometry x="420" y="200" width="40" height="40" as="geometry" />
        </mxCell>
        <mxCell id="br7ys18pZ6fWadVmQY68-8" value="&lt;font style=&quot;font-size: 15px;&quot;&gt;&lt;b&gt;Hours:&amp;nbsp;&lt;/b&gt;&lt;/font&gt;" style="text;html=1;align=left;verticalAlign=middle;whiteSpace=wrap;rounded=0;" vertex="1" parent="1">
          <mxGeometry x="140" y="260" width="80" height="40" as="geometry" />
        </mxCell>
        <mxCell id="br7ys18pZ6fWadVmQY68-9" value="" style="rounded=1;whiteSpace=wrap;html=1;" vertex="1" parent="1">
          <mxGeometry x="210" y="260" width="50" height="40" as="geometry" />
        </mxCell>
        <mxCell id="br7ys18pZ6fWadVmQY68-10" value="&lt;font style=&quot;font-size: 15px;&quot;&gt;&lt;b&gt;Minutes:&amp;nbsp;&lt;/b&gt;&lt;/font&gt;" style="text;html=1;align=left;verticalAlign=middle;whiteSpace=wrap;rounded=0;" vertex="1" parent="1">
          <mxGeometry x="140" y="310" width="80" height="40" as="geometry" />
        </mxCell>
        <mxCell id="br7ys18pZ6fWadVmQY68-11" value="" style="rounded=1;whiteSpace=wrap;html=1;" vertex="1" parent="1">
          <mxGeometry x="210" y="310" width="50" height="40" as="geometry" />
        </mxCell>
        <mxCell id="br7ys18pZ6fWadVmQY68-12" value="Submit" style="rounded=1;whiteSpace=wrap;html=1;" vertex="1" parent="1">
          <mxGeometry x="325" y="360" width="100" height="30" as="geometry" />
        </mxCell>
        <mxCell id="br7ys18pZ6fWadVmQY68-13" value="Shut Down Application Interface" style="text;html=1;align=center;verticalAlign=middle;whiteSpace=wrap;rounded=0;fontStyle=1;fontSize=18;" vertex="1" parent="1">
          <mxGeometry x="165" y="150" width="250" height="30" as="geometry" />
        </mxCell>
      </root>
    </mxGraphModel>
  </diagram>
</mxfile>
